<svg version="1.2" baseProfile="tiny-ps" xmlns="http://www.w3.org/2000/svg" viewBox="0 0 594 517" width="594" height="517">
	<title>New Project</title>
	<style>
		tspan { white-space:pre }
		.s0 { fill: #fbabab } 
		.s1 { fill: #f7f7f7 } 
	</style>
	<g id="Layer 1">
		<path id="Path 1" class="s0" d="m345.71 0c0.71 0 4.37 3.04 8.14 6.75c3.77 3.71 9.67 11.03 13.11 16.25c3.44 5.22 8.64 14.45 11.57 20.5c2.92 6.05 6.87 15.5 8.76 21c1.9 5.5 4.38 14.05 5.53 19c1.15 4.95 2.6 13.95 3.23 20c0.86 8.26 0.87 13.74 0.01 22c-0.63 6.05-1.98 13.7-3 17c-1.41 4.55-1.58 6.31-0.71 7.27c0.92 1.01 2.06 0.72 5.65-1.45c2.48-1.5 6.52-3.7 9-4.9c2.48-1.2 8.33-3.53 13-5.18c4.67-1.65 13.23-3.95 19-5.11c5.77-1.16 16.13-2.6 23-3.21c6.88-0.61 17.89-0.81 24.5-0.46c6.6 0.35 16.27 1.11 21.5 1.68c5.23 0.57 14.67 2.08 21 3.36c6.33 1.28 15.33 3.43 20 4.78c4.67 1.34 9.96 3.18 15 5.73l-2.42 4.25c-1.33 2.34-8.08 14.38-15.01 26.75c-6.92 12.38-12.59 22.73-12.59 23c0 0.27 13.39 6.66 29.76 14.19c24.02 11.04 29.81 14.09 30.01 15.75c0.14 1.13-0.71 3.97-1.89 6.31c-1.18 2.34-4.05 6.73-6.39 9.75c-2.33 3.02-7.33 8.45-11.11 12.05c-3.78 3.6-9.56 8.6-12.86 11.11c-3.3 2.51-9.38 6.72-13.5 9.35c-4.13 2.64-12.23 7.15-18 10.03c-5.77 2.88-14.77 6.83-20 8.79c-5.23 1.95-14 4.69-19.5 6.09c-5.5 1.4-14.59 3.34-20.21 4.32c-10.05 1.75-10.18 1.81-8.5 3.77c0.94 1.1 3.96 4.48 6.71 7.51c2.75 3.03 7.67 9.56 10.94 14.5c3.27 4.95 8.09 13.49 10.71 18.99c2.63 5.5 6.32 14.5 8.22 20c1.89 5.5 4.14 12.7 4.98 16c0.84 3.3 2.43 10.5 3.53 16c1.1 5.5 2.53 16.08 3.18 23.5c0.66 7.42 1.02 18.3 0.82 24.16c-0.21 5.86-0.6 10.94-0.88 11.28c-0.27 0.34-8.38-0.32-18-1.46c-9.63-1.15-23.58-2.96-31-4.03c-7.42-1.07-14.4-1.95-15.5-1.95c-1.84-0.01-2.4 2.28-6.89 28.25c-2.69 15.54-5.3 29.38-5.81 30.76c-0.92 2.47-1.01 2.49-9.11 1.79c-4.5-0.39-12.24-1.89-17.19-3.34c-4.95-1.44-12.83-4.26-17.5-6.25c-4.67-1.99-11.42-5.16-15-7.04c-3.58-1.88-11.45-6.7-17.5-10.71c-6.05-4.01-14.6-10.53-19-14.49c-4.4-3.96-10.48-10.01-13.5-13.43c-3.02-3.43-7.6-9.34-10.17-13.13c-2.57-3.8-6.43-10.5-8.59-14.9c-2.16-4.4-4.83-10.02-7.98-17l-2.88 4.9c-1.59 2.69-5.47 8.43-8.63 12.75c-3.16 4.32-9.69 11.74-14.5 16.48c-4.81 4.75-13.25 12.24-18.75 16.65c-5.5 4.41-14.5 11.02-20 14.69c-5.5 3.67-14.27 9.17-19.5 12.22c-5.23 3.05-13.66 7.63-18.75 10.18c-5.09 2.54-12.96 6.16-17.5 8.04c-4.54 1.88-9.82 3.71-15.25 4.71l-5.27-29.81c-2.9-16.4-5.37-29.94-5.5-30.09c-0.13-0.15-15.17 1.87-33.44 4.5c-22.22 3.2-33.55 4.45-34.24 3.78c-0.57-0.55-1.51-3.92-2.09-7.5c-0.75-4.63-0.73-9.37 0.08-16.5c0.62-5.5 2.37-14.95 3.9-21c1.53-6.05 4.47-15.27 6.54-20.5c2.07-5.23 5.94-13.77 8.6-19c2.66-5.23 7.39-13.32 10.52-18c3.12-4.68 8.15-11.43 11.16-15c3.02-3.57 9.82-10.62 24.74-24.82l-4-0.63c-2.2-0.35-8.73-1.69-14.5-2.99c-5.77-1.3-15-4.03-20.5-6.08c-5.5-2.04-14.73-6.12-20.5-9.05c-5.77-2.94-15.9-8.88-22.5-13.2c-6.6-4.32-16.5-11.49-22-15.93c-5.5-4.44-15.21-13.41-21.58-19.94c-6.37-6.52-13.69-14.79-16.27-18.36c-2.58-3.57-4.38-6.58-3.99-6.67c0.39-0.09 13.79-6.32 29.77-13.83c15.98-7.52 29.18-13.85 29.31-14.08c0.14-0.23-6.5-12.34-14.75-26.92c-8.25-14.57-15-27.18-15-28c0-0.82 1.91-2.38 4.25-3.45c2.34-1.07 7.63-2.85 11.75-3.96c4.13-1.11 12.68-2.8 19-3.77c8.64-1.32 17.72-1.77 36.5-1.78c19.16-0.01 27.69 0.4 36.5 1.77c6.32 0.99 16.23 2.94 22 4.35c5.77 1.41 13.65 3.68 17.5 5.05c3.85 1.37 10.94 4.47 15.75 6.89c4.81 2.42 8.96 4.29 9.22 4.15c0.26-0.14-0.36-3.4-1.39-7.25c-1.02-3.85-2.43-10.82-3.12-15.5c-0.8-5.36-1.04-12.57-0.65-19.5c0.34-6.05 1.34-14.82 2.24-19.5c0.89-4.68 3.39-13.9 5.55-20.5c2.16-6.6 6.81-17.85 10.33-25c3.53-7.15 9.54-17.72 13.36-23.5c3.82-5.78 9.48-13.54 12.58-17.25c3.1-3.71 6.3-6.75 7.13-6.75c0.82 0 11.3 8.89 23.27 19.75c11.97 10.86 22.55 20.31 23.5 21c1.52 1.1 4.63-1.38 25.45-20.25c13.04-11.82 24.29-21.5 25-21.5z" />
		<path id="Path 2" class="s1" d="m256.57 43c0.23 0 7.51 6.37 16.18 14.16c8.66 7.79 17.55 15.89 23.75 21.83l20-18.04c11-9.92 20.56-18.02 21.25-18c0.69 0.02 3.85 2.63 7.03 5.79c3.18 3.16 7.84 8.9 10.36 12.75c2.52 3.85 6.72 11.28 9.35 16.5c2.62 5.22 6.49 14.68 8.6 21c2.11 6.32 4.58 15.78 5.48 21c1.18 6.8 1.52 13.06 1.19 22c-0.3 8.24-1.11 14.63-2.36 18.73c-1.04 3.43-1.53 6.58-1.08 7c0.45 0.42 3.83-0.87 7.5-2.88c3.67-2.01 10.73-5.07 15.68-6.81c4.95-1.74 14.06-4.03 20.25-5.1c8.02-1.38 15.91-1.94 27.5-1.93c8.94 0 21.2 0.64 27.25 1.41c6.05 0.77 14.6 2.14 19 3.04c4.4 0.9 10.25 2.32 13 3.16c2.75 0.83 6.7 2.28 8.78 3.2c2.08 0.93 3.77 2.02 3.75 2.43c-0.02 0.41-5.43 10.43-12.03 22.25c-6.6 11.82-11.99 21.84-11.97 22.25c0.02 0.41 11.28 5.93 25.04 12.25c16.7 7.68 24.99 12 24.96 13c-0.03 0.82-1.45 3.98-3.17 7c-1.72 3.02-7.45 9.79-12.74 15.04c-5.29 5.25-13.9 12.39-19.12 15.87c-5.23 3.48-12.99 8.07-17.25 10.21c-4.26 2.13-11.13 5.23-15.25 6.88c-4.13 1.65-12.56 4.32-18.75 5.93c-6.19 1.61-13.27 3.21-15.75 3.55c-2.48 0.34-5.74 0.83-10 1.52l5.25 5.76c2.89 3.17 7.77 9.58 10.85 14.25c3.08 4.67 7.3 12.09 9.38 16.49c2.08 4.4 5.55 13.4 7.72 20c2.2 6.69 5.06 18.64 6.47 27c1.81 10.75 2.57 19.16 2.68 29.67c0.08 8.07-0.08 14.95-0.36 15.29c-0.27 0.34-12.88-0.96-28-2.88c-15.13-1.93-27.56-3.41-27.64-3.29c-0.08 0.12-2.11 11.47-8.88 50.22l-7.99-0.07c-6.47-0.06-10.08-0.78-18.99-3.81c-6.05-2.05-16.17-6.44-22.5-9.74c-6.33-3.3-15.1-8.68-19.5-11.95c-4.4-3.27-11.74-9.65-16.31-14.19c-4.57-4.53-10.49-11.39-13.16-15.24c-2.67-3.85-6.62-10.6-8.78-15c-2.16-4.4-4.37-9.13-5.92-13l-1.81 3c-1 1.65-3.43 5.45-5.42 8.43c-1.98 2.99-6.98 9.01-11.11 13.39c-4.13 4.37-10.88 10.75-15 14.18c-4.13 3.42-12 9.36-17.5 13.2c-5.5 3.83-14.5 9.61-20 12.83c-5.5 3.22-14.05 7.76-19 10.08c-4.95 2.32-12.01 5.27-15.68 6.56c-3.68 1.28-6.95 2.11-7.27 1.83c-0.32-0.27-2.49-11.36-4.82-24.64c-2.33-13.27-4.45-24.39-4.73-24.69c-0.27-0.31-12.88 1.24-28 3.44c-26.26 3.81-27.56 3.91-28.73 2.19c-0.67-0.99-1.48-4.28-1.79-7.3c-0.31-3.02-0.12-8.88 0.42-13c0.54-4.13 1.46-9.64 2.04-12.25c0.58-2.61 2.39-8.91 4.01-14c1.62-5.09 5.81-14.88 9.3-21.75c3.5-6.88 8.55-15.65 11.23-19.5c2.68-3.85 9.98-12.18 16.23-18.5c6.24-6.32 11.34-11.5 11.33-11.5c-0.01 0-2.38-0.36-5.28-0.81c-2.9-0.44-8.87-1.72-13.27-2.85c-4.4-1.12-11.26-3.35-15.25-4.94c-3.99-1.6-11.19-4.88-16-7.29c-4.81-2.41-13.48-7.5-19.25-11.31c-5.77-3.81-15.23-10.98-21-15.94c-5.77-4.96-14.06-12.81-18.4-17.44c-4.35-4.63-9.07-10.13-10.5-12.21c-1.7-2.48-2.25-4.11-1.6-4.72c0.55-0.51 11.35-5.71 24-11.56c12.65-5.84 23.38-10.92 23.84-11.28c0.46-0.36-4.61-10.33-11.28-22.16c-6.66-11.82-12.22-22.39-12.34-23.47c-0.17-1.53 1-2.46 5.28-4.17c3.02-1.21 8.99-2.91 13.25-3.78c4.26-0.87 11.91-2.03 17-2.57c5.09-0.54 16.23-0.99 24.75-0.99c8.52-0.01 19.55 0.46 24.5 1.02c4.95 0.57 12.38 1.71 16.5 2.53c4.13 0.82 11.77 2.83 17 4.47c5.23 1.63 12.99 4.77 17.25 6.96c4.76 2.45 7.76 3.51 7.76 2.74c0.01-0.69-0.7-3.5-1.56-6.25c-0.92-2.91-1.82-10.63-2.17-18.5c-0.39-8.85-0.15-16.26 0.68-21.5c0.7-4.4 2.6-12.5 4.23-18c1.63-5.5 5.54-15.4 8.69-22c3.15-6.6 8.71-16.5 12.35-22c3.64-5.5 8.72-12.36 11.27-15.25c2.55-2.89 4.84-5.25 5.07-5.25z" />
		<path id="Path 3" fill-rule="evenodd" class="s0" d="m226.33 176c1.41 1.38 12.46 13.75 46.56 52.5l-3.19 2.71c-1.76 1.49-3.42 2.71-3.69 2.71c-0.27 0-9.73-13.1-21-29.11c-11.27-16.01-20.66-29.6-20.87-30.21c-0.2-0.6 0.79 0.03 2.19 1.4zm68.92-2c1.51 0 3.76 0.5 5 1.12c1.24 0.62 3.27 2.08 4.53 3.25c1.64 1.53 2.27 3.24 2.26 6.13c-0.01 2.2-0.7 5.01-1.53 6.25c-0.83 1.24-2.97 2.99-8.01 5.54l0.75 12.35c0.72 11.94 0.68 12.35-1.25 12.35c-1.92 0-1.98-0.46-0.76-24.5l-4.28-1.5c-2.35-0.82-5.13-2.63-6.18-4c-1.16-1.52-1.89-4.07-1.87-6.5c0.02-2.2 0.47-4.64 1-5.43c0.53-0.79 2.46-2.25 4.28-3.25c1.82-1 4.55-1.82 6.06-1.82zm73.42 0.45c0.18 0.3-7.84 11.91-17.83 25.79c-9.99 13.89-19.66 27.16-24.84 33.75l3.58 4.75c1.97 2.61 4.28 7.23 5.13 10.25c0.97 3.45 1.37 7.73 1.08 11.5c-0.27 3.41-1.57 8.38-3.01 11.5c-1.4 3.02-4.5 7.5-6.91 9.94c-2.4 2.44-7.07 5.71-10.37 7.25c-3.3 1.55-8.93 3.29-12.5 3.88c-4.63 0.76-8.23 0.75-12.5-0.02c-3.3-0.6-8.7-2.36-12-3.91c-3.3-1.55-8.18-5.03-10.84-7.73c-3.08-3.12-4.63-4.18-4.27-2.91c0.51 1.77-0.43 2.31-8.16 4.64c-4.8 1.45-22.01 6.7-38.23 11.66c-16.23 4.96-30.85 9.3-32.5 9.63c-2.33 0.47-2 0.13 1.5-1.5c2.48-1.16 19.8-8.41 38.5-16.11c27.42-11.29 34.34-13.79 35.75-12.91c1.33 0.83 1.64 0.79 1.31-0.16c-0.24-0.69-1.2-3.73-2.13-6.75c-1.21-3.94-1.53-7.34-1.11-12c0.38-4.29 1.53-8.33 3.38-11.87c1.54-2.95 4.94-7.34 7.55-9.75c2.61-2.41 7.34-5.57 10.5-7.03c3.16-1.46 8.23-3 11.25-3.42c3.02-0.43 8.2-0.43 11.5 0c3.3 0.43 8.7 1.98 12 3.45c3.3 1.47 6.11 2.66 6.25 2.65c0.14-0.01 0.14-0.42 0-0.9c-0.14-0.48 10.51-12.88 23.67-27.54c13.15-14.67 24.07-26.42 24.25-26.12zm8.08 48.58c3.31-0.03 5.03 0.63 7.75 2.96c3.04 2.6 3.5 3.6 3.5 7.5c0 3.61-0.56 5.04-2.8 7.25c-1.54 1.51-4.13 3.07-5.75 3.46c-1.62 0.39-4.52 0.27-6.45-0.28c-1.92-0.54-4.17-1.64-5-2.44c-1.31-1.27-3.29-0.72-16 4.46c-11.78 4.8-14.64 5.64-15.25 4.48c-0.41-0.79-0.64-1.66-0.5-1.93c0.14-0.27 6.55-2.45 28.25-9.17l0.09-4.41c0.05-2.43 0.84-5.52 1.75-6.88c0.92-1.35 2.68-3.02 3.91-3.71c1.24-0.69 4.16-1.27 6.5-1.29zm-153.77 13.99c3.23 0.02 5.44 0.73 7.77 2.5c2.26 1.72 3.4 3.54 3.75 5.97c0.48 3.33 0.75 3.55 5.75 4.46c2.89 0.53 7.05 1.24 9.25 1.59c2.2 0.34 4.79 0.81 5.75 1.04c0.96 0.23 1.75 1.31 1.75 2.41c0 1.36-0.56 1.9-1.75 1.67c-0.96-0.18-5.89-1.42-20.15-5.17l-2.8 2.71c-1.54 1.49-4.15 3.22-5.8 3.84c-2.12 0.8-4.03 0.83-6.5 0.11c-1.93-0.56-4.79-2.51-6.37-4.34c-2.44-2.82-2.78-3.91-2.32-7.31c0.4-2.92 1.44-4.74 3.85-6.75c2.55-2.12 4.33-2.74 7.82-2.72zm113.27 32c0.41-0.02 19.09 4.8 41.5 10.7c22.41 5.9 40.08 10.88 39.25 11.07c-0.83 0.18-16.35-2.16-34.5-5.21c-18.15-3.05-36.83-6.23-41.5-7.07c-4.68-0.84-8.6-1.64-8.72-1.77c-0.12-0.14 0.56-1.92 1.5-3.96c0.94-2.04 2.05-3.73 2.47-3.75zm-62 20c0.41-0.02 1.43 0.19 2.25 0.46c0.82 0.27 1.5 0.95 1.5 1.5c0 0.55-3.38 4.82-7.5 9.5c-6.77 7.67-7.39 8.72-6.37 10.75c0.62 1.24 1.13 3.6 1.14 5.25c0 1.65-0.7 4.13-1.55 5.5c-0.86 1.38-2.72 3.06-4.14 3.75c-1.42 0.69-4.38 1.25-6.58 1.25c-3 0-4.88-0.75-7.5-3c-3.04-2.6-3.5-3.6-3.5-7.5c0-3.61 0.56-5.04 2.8-7.25c1.54-1.51 4.13-3.07 5.75-3.46c1.62-0.39 4.52-0.3 6.45 0.21c1.93 0.51 3.73 0.75 4 0.55c0.27-0.21 3.2-4.22 6.5-8.92c3.3-4.7 6.34-8.56 6.75-8.58zm45.5-0.02c0.69-0.01 5.19 5.62 10 12.51c4.81 6.89 8.98 12.52 9.25 12.52c0.27 0 2.3-0.72 4.5-1.59c2.66-1.06 5.01-1.34 7-0.84c1.65 0.42 4.24 1.8 5.75 3.07c1.51 1.27 3.02 3.77 3.36 5.56c0.39 2.07 0.02 4.43-1 6.5c-0.88 1.79-2.96 3.93-4.61 4.75c-1.65 0.82-4.8 1.5-7 1.5c-3.14 0-4.75-0.7-7.46-3.25c-2.54-2.38-3.47-4.12-3.5-6.5c-0.02-1.79 0.41-4.15 0.96-5.25c0.86-1.71-0.25-3.41-7.66-11.75c-4.76-5.36-9.83-11.01-11.25-12.55c-2.19-2.37-2.36-2.94-1.09-3.73c0.82-0.52 2.06-0.94 2.75-0.95zm-28.86 5.98h11.11l-0.5 7.25c-0.27 3.99-0.96 15.8-1.54 26.25c-0.57 10.45-1.48 25.41-2 33.25c-0.53 7.84-0.95 15.49-0.93 17c0.02 1.51-0.17 2.52-0.41 2.25c-0.24-0.27-1.37-17.15-2.52-37.5c-1.15-20.35-2.34-39.59-2.65-42.75l-0.56-5.75z" />
	</g>
</svg>