<svg data-name="Layer 1" viewBox="0 0 128 128" xmlns="http://www.w3.org/2000/svg"><path d="M91.94 58.65a8.79 8.79 0 0 0-7.6 4.54 8.79 8.79 0 0 0-7.6-4.54 9.15 9.15 0 0 0-8.87 9.4s0 .51 0 .75v.29c.7 7.66 15.26 16.76 15.88 17.14a1 1 0 0 0 .53.15 1 1 0 0 0 .53-.15c.62-.38 15.18-9.48 15.87-17.12v-1.08a9.13 9.13 0 0 0-8.74-9.38Zm6.85 9.81v.45c-.48 5.31-10.1 12.53-14.41 15.29-4.31-2.76-13.93-10-14.42-15.31v-.86a7.15 7.15 0 0 1 6.87-7.38 7 7 0 0 1 6.63 5.45 1 1 0 0 0 1.94 0 7 7 0 0 1 6.63-5.45A7.13 7.13 0 0 1 98.8 68c0 .07-.01.33-.01.46ZM32.31 46.59A2.74 2.74 0 1 0 35 49.33a2.74 2.74 0 0 0-2.69-2.74Zm0 3.47a.74.74 0 0 1 0-1.47.74.74 0 0 1 0 1.47ZM43.66 46.59a2.74 2.74 0 1 0 2.74 2.74 2.74 2.74 0 0 0-2.74-2.74Zm0 3.47a.74.74 0 1 1 .74-.73.73.73 0 0 1-.74.73ZM55 52.06a2.74 2.74 0 1 0-2.73-2.73A2.74 2.74 0 0 0 55 52.06Zm0-3.47a.74.74 0 1 1-.73.74.74.74 0 0 1 .73-.74ZM92.55 47.86a1 1 0 1 0-.45 2 29.56 29.56 0 0 1 13.24 6.69 1 1 0 0 0 1.41-.07 1 1 0 0 0-.07-1.41 31.47 31.47 0 0 0-14.13-7.21ZM109.43 61.36a22.61 22.61 0 0 1 1.28 2.43 1 1 0 0 0 .91.6 1 1 0 0 0 .41-.08 1 1 0 0 0 .51-1.32 22.12 22.12 0 0 0-1.41-2.68 1 1 0 1 0-1.7 1Z" fill="#ffffff" class="fill-000000"></path><path d="M84.34 42a42.38 42.38 0 0 0-6.33.47c-3.53-12.9-17.79-22.19-34.35-22.19-19.4 0-35.18 12.72-35.18 28.34 0 7.64 3.7 14.77 10.42 20.13V85a1 1 0 0 0 .52.88 1 1 0 0 0 .48.12 1 1 0 0 0 .54-.16l14.85-9.64a44.2 44.2 0 0 0 14.7.33c3.48 12.7 17.56 22.23 34.35 22.23a44 44 0 0 0 8.37-.8l14.85 9.64a1 1 0 0 0 .54.16 1 1 0 0 0 .48-.12 1 1 0 0 0 .52-.88V90.51c6.72-5.36 10.42-12.49 10.42-20.13 0-15.63-15.78-28.38-35.18-28.38ZM35.29 74.12a1 1 0 0 0-.74.14L20.9 83.12V68.27a1 1 0 0 0-.39-.79c-6.47-5-10-11.71-10-18.86 0-14.52 14.88-26.34 33.18-26.34 15.59 0 29 8.59 32.37 20.56-15.4 3-26.87 14.22-26.87 27.54a23 23 0 0 0 .38 4.16 42 42 0 0 1-14.28-.42Zm72.2 15.11a1 1 0 0 0-.39.79v14.86L93.45 96a1 1 0 0 0-.54-.16.65.65 0 0 0-.2 0 41.62 41.62 0 0 1-8.37.84C66 96.72 51.16 84.9 51.16 70.38S66 44 84.34 44s33.18 11.81 33.18 26.34c0 7.19-3.52 13.89-10.03 18.89Z" fill="#ffffff" class="fill-000000"></path><path d="M22.88 32.62a23.7 23.7 0 0 0-7.15 9.32 1 1 0 0 0 .55 1.3 1 1 0 0 0 .38.08 1 1 0 0 0 .93-.62 21.62 21.62 0 0 1 6.54-8.53 1 1 0 1 0-1.25-1.55ZM37.21 26.27a33.69 33.69 0 0 0-4.27 1.05 1 1 0 0 0 .3 1.95.79.79 0 0 0 .3-.05 33.67 33.67 0 0 1 4-1 1 1 0 0 0-.35-2Z" fill="#ffffff" class="fill-000000"></path></svg>