<svg overflow="hidden" viewBox="0 0 96 96" xmlns="http://www.w3.org/2000/svg"><circle cx="23" cy="15" r="7" fill="#ffffff" class="fill-000000"></circle><circle cx="53" cy="15" r="7" fill="#ffffff" class="fill-000000"></circle><circle cx="80" cy="56" r="5" fill="#ffffff" class="fill-000000"></circle><path d="m90.8 74.2-3.5-8.4c-1.2-1.7-3.1-3-5.2-3.6-.6-.1-1.4-.2-2.1-.2h-5l-4.2-7.1c.1-.5.2-1 .1-1.5l-4.7-23.6c-1.9-2.1-4.3-3.7-7.1-4.7-1.9-.7-4-1.1-6.2-1.1s-4.2.4-6.2 1.1c-2.7 1-5.1 2.6-7.1 4.7L38 38.7l-1.8-8.9c-1.9-2.1-4.3-3.7-7.1-4.7-1.9-.7-4-1.1-6.2-1.1s-4.2.4-6.2 1.1c-2.7 1-5.1 2.6-7.1 4.7L5.1 53.4c-.3 1.6.7 3.2 2.4 3.5.1.1.3.1.5.1 1.4 0 2.7-1 2.9-2.4L15 34.3V88h6V57h4v31h6V34.3l4.1 20.3C35.3 56 36.6 57 38 57s2.7-1 2.9-2.4L45 34.3v10.9l-3.8 18.9H45V88h6V64h4v24h6V64.1h3.8L61 45.2V34.3l4.1 20.3c.2 1.2 1.2 2.1 2.3 2.3L75 69.8v4.8L73 80h2v8h4v-8h2v8h4v-8h2l-2-5.5v-3.9l2.2 5.2c.3.8 1.1 1.2 1.8 1.2.3 0 .5 0 .8-.2 1-.4 1.5-1.6 1-2.6Z" fill="#ffffff" class="fill-000000"></path></svg>