<?xml version="1.0" encoding="utf-8"?>
<!-- Generator: Adobe Illustrator 25.2.1, SVG Export Plug-In . SVG Version: 6.00 Build 0)  -->
<svg version="1.1" id="Layer_1" xmlns="http://www.w3.org/2000/svg" xmlns:xlink="http://www.w3.org/1999/xlink" x="0px" y="0px"
	 viewBox="0 0 500 500" style="enable-background:new 0 0 500 500;" xml:space="preserve">
<style type="text/css">
	.st0{clip-path:url(#SVGID_2_);}
	.st1{fill:#DF4759;}
	.st2{fill:#FFFFFF;}
	.st3{fill:none;}
	.st4{opacity:0.48;fill:url(#SVGID_3_);}
</style>
<g>
	<g>
		<defs>
			<path id="SVGID_1_" d="M378.76,500H121.24C54.28,500,0,445.72,0,378.76V121.24C0,54.28,54.28,0,121.24,0h257.53
				C445.72,0,500,54.28,500,121.24v257.53C500,445.72,445.72,500,378.76,500z"/>
		</defs>
		<clipPath id="SVGID_2_">
			<use xlink:href="#SVGID_1_"  style="overflow:visible;"/>
		</clipPath>
		<g class="st0">
			<path class="st1" d="M378.76,500H121.24C54.28,500,0,445.72,0,378.76V121.24C0,54.28,54.28,0,121.24,0h257.53
				C445.72,0,500,54.28,500,121.24v257.53C500,445.72,445.72,500,378.76,500z"/>
			<g>
				<g>
					<g>
						<path class="st2" d="M93.94,247.24c-0.01,0.58-0.05,1.15-0.05,1.73c0,86.08,70.03,156.11,156.11,156.11
							c86.08,0,156.11-70.03,156.11-156.11c0-86.08-70.03-156.11-156.11-156.11c-33.97,0-65.42,10.94-91.07,29.44v119.92
							c3.47-47.22,42.98-84.59,91.07-84.59c50.37,0,91.35,40.98,91.35,91.35c0,50.37-40.98,91.35-91.35,91.35
							c-50.37,0-91.35-40.98-91.35-91.35c0-1.31,0.04-2.61,0.1-3.91V122.42c-0.03,0.02-0.07,0.05-0.1,0.08v-168.1l-64.76,6.39
							v286.46H93.94z"/>
					</g>
				</g>
				<path class="st3" d="M158.75,247.24v-2.18c-0.05,1.3-0.1,2.6-0.1,3.91c0,50.37,40.98,91.35,91.35,91.35
					c50.37,0,91.35-40.98,91.35-91.35s-40.98-91.35-91.35-91.35c-48.09,0-87.6,37.37-91.07,84.59v5.03H158.75z"/>
				<linearGradient id="SVGID_3_" gradientUnits="userSpaceOnUse" x1="97.7877" y1="167.5322" x2="318.9089" y2="167.5322">
					<stop  offset="0" style="stop-color:#000000"/>
					<stop  offset="1" style="stop-color:#FFFFFF;stop-opacity:0"/>
				</linearGradient>
				<path class="st4" d="M250,92.85c-33.97,0-65.42,10.94-91.07,29.44v119.92c3.47-47.22,42.98-84.59,91.07-84.59
					c39.69,0,73.53,25.45,86.11,60.89l43.94-55.77C352.05,120.65,304.22,92.85,250,92.85z"/>
			</g>
		</g>
	</g>
</g>
</svg>
