<svg data-name="Layer 1" viewBox="0 0 512 512" xmlns="http://www.w3.org/2000/svg"><path d="M82.9 274.65a6 6 0 0 0-6 6v187.11a6 6 0 1 0 11.92 0V280.62a6 6 0 0 0-5.92-5.97ZM429.1 274.65a6 6 0 0 0-6 6v187.11a6 6 0 1 0 11.92 0V280.62a6 6 0 0 0-5.92-5.97Z" fill="#ffffff" class="fill-000000"></path><path d="M429.92 201.26h-28A70.2 70.2 0 0 0 433 143v-34.49a70.23 70.23 0 1 0-140.45 0V143a70.2 70.2 0 0 0 31.15 58.3H188.27a70.2 70.2 0 0 0 31.16-58.3v-34.49a70.24 70.24 0 0 0-140.47 0V143a70.2 70.2 0 0 0 31.15 58.3h-28c-40.78 0-64.17 30.24-64.17 83v183.46a6 6 0 0 0 11.92 0V284.22c0-32.41 9.07-71 52.25-71h182l-51.35 68.91a5.55 5.55 0 0 0-.24.56 5.63 5.63 0 0 0-.6 1.32 7.55 7.55 0 0 0-.16.8 6.54 6.54 0 0 0-.18.88 5.56 5.56 0 0 0 .19.92v181.21a6 6 0 0 0 11.92 0V291.61h64.61v176.15a6 6 0 0 0 11.93 0V285.65a6 6 0 0 0-6-6h-64.79L279 213.18h150.92c43.17 0 52.24 38.63 52.24 71v183.58a6 6 0 0 0 11.92 0V284.22c0-52.72-23.38-82.96-64.16-82.96ZM90.88 143v-34.49a58.32 58.32 0 0 1 116.63 0V143a58.32 58.32 0 0 1-116.63 0Zm213.63 0v-34.49a58.31 58.31 0 0 1 116.61 0V143a58.31 58.31 0 0 1-116.61 0Z" fill="#ffffff" class="fill-000000"></path></svg>