<?xml version="1.0" ?><svg xmlns="http://www.w3.org/2000/svg" xmlns:xlink="http://www.w3.org/1999/xlink" version="1.1" viewBox="0 0 512 512" style="enable-background:new 0 0 512 512;" xml:space="preserve"><g id="_x31_6_Enevt_Card"><g><linearGradient id="SVGID_1_" gradientUnits="userSpaceOnUse" x1="284.9663" y1="-205.8511" x2="226.5783" y2="880.1655"><stop offset="0" style="stop-color:#EAE9FE"/><stop offset="0.4236" style="stop-color:#EEEEFE"/><stop offset="0.8967" style="stop-color:#FBFBFF"/><stop offset="1" style="stop-color:#FFFFFF"/></linearGradient><path style="fill:url(#SVGID_1_);" d="M468.836,264.275c-9.501-7.393-20.976-13.763-25.396-24.961    c-6.009-15.229,3.596-31.571,9.261-46.931c17.297-46.899-4.903-102.439-44.732-132.645    c-75.982-57.623-224.302-37.425-245.028,42.219c-8.768,33.692,6.941,72.131-9.131,103.013    c-20.278,38.966-74.073,41.594-108.719,58.921C2.169,285.358-6.419,332.1,24.365,367.686    c11.304,13.068,25.769,22.07,36.136,36.348c15.001,20.659,23.415,43.504,43.486,60.545c28.263,23.996,75.517,29.946,100.538,2.586    c14.09-15.407,18.674-38.106,34.054-52.225c20.245-18.586,52.242-16.086,78.004-6.514c25.762,9.571,49.654,25.026,76.789,29.381    c42.426,6.81,87.917-18.085,105.053-57.489C515.561,340.912,502.748,290.664,468.836,264.275z"/><path style="fill:#FF5859;" d="M391.26,67.465V462.75h-279c-9.553,0-17.298-7.744-17.298-17.298v-338.4    c0-10.287,7.578-19.001,17.765-20.429L371.56,50.335C381.967,48.876,391.26,56.957,391.26,67.465z"/><path style="fill:#EDEDED;" d="M415.961,106.4v339.041c0,9.553-7.744,17.298-17.298,17.298H112.26    c-9.553,0-17.298-7.744-17.298-17.298V106.293c0-9.494,7.697-17.191,17.191-17.191h286.511    C408.217,89.102,415.961,96.847,415.961,106.4z"/><path style="fill:#F9BB40;" d="M324.12,215.205l-16.877,16.447c-3.735,3.663-5.422,8.869-4.561,14.005l3.986,23.305    c2.226,12.927-11.347,22.767-22.946,16.662l-20.899-10.988c-4.596-2.442-10.126-2.442-14.723,0l-20.899,10.988    c-11.599,6.105-25.172-3.734-22.946-16.662l3.986-23.305c0.862-5.135-0.826-10.342-4.561-14.005l-16.877-16.447    c-9.408-9.157-4.201-25.101,8.762-26.968l23.377-3.411c5.135-0.754,9.588-3.986,11.886-8.654l10.45-21.151    c5.818-11.778,22.551-11.778,28.368,0l10.45,21.151c2.298,4.668,6.751,7.9,11.886,8.654l23.377,3.411    C328.322,190.104,333.529,206.048,324.12,215.205z"/><path style="fill:#332E8E;" d="M370.982,46.208L112.15,82.495c-12.765,1.789-21.354,13.168-21.354,23.798    c0,38.909,0,300.379,0,339.149v0.011c0,11.836,9.63,21.464,21.466,21.464h112.671v-0.009h173.733    c11.836,0,21.466-9.63,21.466-21.466V106.4c0-11.836-9.63-21.466-21.466-21.466h-3.237v-17.47    C395.427,54.382,383.83,44.396,370.982,46.208z M373.964,54.335c7.214,0,13.127,5.851,13.127,13.13v17.47h-232.31    C387.012,52.423,372.225,54.335,373.964,54.335z M411.794,106.4v339.041c0,7.239-5.891,13.13-13.13,13.13H112.261    c-7.239,0-13.13-5.891-13.13-13.13v-338.39c0-8.243,6.085-13.781,13.022-13.781h286.512    C405.904,93.27,411.794,99.161,411.794,106.4z"/><path style="fill:#332E8E;" d="M200.761,234.627c2.743,2.692,4.005,6.557,3.373,10.326l-3.986,23.3    c-1.3,7.55,1.739,15.038,7.937,19.54c3.503,2.548,7.603,3.841,11.73,3.841c3.177,0,6.374-0.768,9.326-2.321l20.915-10.997    c3.392-1.799,7.432-1.796,10.829,0.008l20.898,10.989c6.783,3.568,14.853,2.989,21.056-1.518    c6.197-4.503,9.239-11.99,7.939-19.536l-3.983-23.293c-0.635-3.781,0.621-7.646,3.356-10.328l16.875-16.444    c5.497-5.348,7.44-13.199,5.069-20.487c-2.372-7.292-8.555-12.499-16.134-13.591l-23.373-3.411    c-3.791-0.558-7.063-2.939-8.756-6.378l-10.449-21.151c-3.397-6.88-10.265-11.155-17.922-11.155    c-7.654,0-14.522,4.275-17.919,11.155l-10.452,21.156c-1.69,3.432-4.963,5.815-8.748,6.371l-23.37,3.411    c-7.584,1.094-13.768,6.3-16.139,13.591c-2.371,7.29-0.431,15.139,5.063,20.486L200.761,234.627z M186.757,200.281    c1.403-4.313,4.917-7.272,9.41-7.919l23.381-3.413c6.504-0.955,12.118-5.044,15.016-10.931l10.449-21.152    c2.013-4.077,5.921-6.511,10.447-6.511c4.529,0,8.436,2.434,10.449,6.512l10.447,21.145c2.901,5.893,8.517,9.981,15.024,10.938    l23.384,3.413c4.485,0.646,8.002,3.606,9.405,7.918c1.4,4.31,0.296,8.772-2.955,11.936c0,0.001-0.003,0.001-0.003,0.003    l-16.888,16.457c-4.686,4.598-6.835,11.204-5.747,17.682l3.986,23.309c0.771,4.466-0.958,8.721-4.624,11.384    c-3.671,2.665-8.26,2.997-12.275,0.883l-20.885-10.981c-5.826-3.097-12.791-3.1-18.617-0.008l-20.901,10.991    c-4.019,2.111-8.604,1.784-12.275-0.886c-3.663-2.662-5.391-6.916-4.621-11.387l3.989-23.319    c1.083-6.466-1.069-13.072-5.763-17.678l-16.88-16.449C186.459,209.053,185.357,204.591,186.757,200.281z"/><path style="fill:#332E8E;" d="M142.412,355.463H368.51c2.301,0,4.168-1.865,4.168-4.168s-1.867-4.168-4.168-4.168H142.412    c-2.301,0-4.168,1.865-4.168,4.168S140.111,355.463,142.412,355.463z"/><path style="fill:#332E8E;" d="M142.412,411.508H368.51c2.301,0,4.168-1.865,4.168-4.168s-1.867-4.168-4.168-4.168H142.412    c-2.301,0-4.168,1.865-4.168,4.168S140.111,411.508,142.412,411.508z"/></g></g><g id="Layer_1"/></svg>