<?xml version="1.0" ?><svg id="Multicolor" viewBox="0 0 100 112" xmlns="http://www.w3.org/2000/svg" xmlns:xlink="http://www.w3.org/1999/xlink"><defs><style>.cls-1,.cls-22,.cls-8{fill:none;}.cls-2{fill:#fff0ed;}.cls-10,.cls-3{fill:#45413c;}.cls-3{opacity:0.15;}.cls-4{fill:#fff48c;}.cls-12,.cls-13,.cls-16,.cls-20,.cls-22,.cls-27,.cls-29,.cls-4,.cls-5,.cls-8,.cls-9{stroke:#45413c;stroke-linejoin:round;}.cls-12,.cls-13,.cls-16,.cls-20,.cls-29,.cls-4,.cls-5,.cls-8,.cls-9{stroke-linecap:round;}.cls-5{fill:#fff;}.cls-6,.cls-9{fill:#ffda8f;}.cls-7{fill:#ffe9bd;}.cls-11{fill:#ffbe3d;}.cls-12,.cls-14{fill:#614b44;}.cls-13,.cls-15{fill:#947063;}.cls-16,.cls-23{fill:#d18660;}.cls-17{fill:#bd704a;}.cls-18{fill:#656769;}.cls-19,.cls-20{fill:#525252;}.cls-21{fill:#87898c;}.cls-24{fill:#e09f7e;}.cls-25{fill:#bdbec0;}.cls-26{fill:#e0e0e0;}.cls-27{fill:#ff6242;}.cls-28{clip-path:url(#clip-path);}.cls-29{fill:#ffb0ca;}</style><clipPath id="clip-path"><circle class="cls-1" cx="50.446" cy="56.002" r="40"/></clipPath></defs><title/><g id="Background"><g data-name="New Symbol 93" id="New_Symbol_93-46"><circle class="cls-2" cx="49.931" cy="56.002" r="40"/></g></g><g id="Scene"><ellipse class="cls-3" cx="31.176" cy="92.298" rx="9.35" ry="1.65"/><path class="cls-4" d="M32.288,91.748a1.1,1.1,0,0,1-.987-1.6,3.3,3.3,0,0,1,2.89-1.7h.55a3.3,3.3,0,0,1,2.889,1.7,1.1,1.1,0,0,1-.987,1.6Z"/><path class="cls-4" d="M25.705,91.748a1.1,1.1,0,0,1-.987-1.6,3.3,3.3,0,0,1,2.889-1.7h.55a3.3,3.3,0,0,1,2.89,1.7,1.1,1.1,0,0,1-.987,1.6Z"/><path class="cls-5" d="M20.732,87.881A1.1,1.1,0,0,0,21.834,89H40.509a1.107,1.107,0,0,0,1.1-1.121c-.25-13.439-4.94-18.129-4.94-18.129-1.015-1.552-1.838-4.29.55-8.141V58.2s-2.2-3.3-6.05,0c-3.849-3.3-6.05.553-6.05.553v2.859c2.388,3.851,1.564,6.589.55,8.141C25.673,69.748,20.964,73.41,20.732,87.881Z"/><path class="cls-6" d="M51.487,65.058a1.929,1.929,0,0,0,1.671-2.15l-.058-.463a4.508,4.508,0,0,0-6.8-3.307L42.068,61.68a.658.658,0,0,1-.995-.567v-.165a9.9,9.9,0,0,0-19.8,0v4.473a10.851,10.851,0,0,0,2.156,6.468l1.529,2.038A1.933,1.933,0,0,0,26.5,74.7a1.909,1.909,0,0,0,1.155-.386,1.928,1.928,0,0,0,.384-2.694L26.51,69.579a6.966,6.966,0,0,1-1.387-4.158V58.748s2.2-3.848,6.05-.553c3.849-3.3,6.05,0,6.05,0v2.915a4.509,4.509,0,0,0,6.829,3.867l4.232-2.539a.657.657,0,0,1,.631-.029.657.657,0,0,1,.365.51l.058.464a1.92,1.92,0,0,0,1.9,1.689A2.047,2.047,0,0,0,51.487,65.058Z"/><path class="cls-7" d="M41.073,60.948a9.9,9.9,0,0,0-19.8,0v2.2a9.893,9.893,0,0,1,19.5-2.356.212.212,0,0,0,.224.161Z"/><path class="cls-8" d="M51.487,65.058a1.929,1.929,0,0,0,1.671-2.15l-.058-.463a4.508,4.508,0,0,0-6.8-3.307L42.068,61.68a.658.658,0,0,1-.995-.567v-.165a9.9,9.9,0,0,0-19.8,0v4.473a10.851,10.851,0,0,0,2.156,6.468l1.529,2.038A1.933,1.933,0,0,0,26.5,74.7a1.909,1.909,0,0,0,1.155-.386,1.928,1.928,0,0,0,.384-2.694L26.51,69.579a6.966,6.966,0,0,1-1.387-4.158V58.748s2.2-3.848,6.05-.553c3.849-3.3,6.05,0,6.05,0v2.915a4.509,4.509,0,0,0,6.829,3.867l4.232-2.539a.657.657,0,0,1,.631-.029.657.657,0,0,1,.365.51l.058.464a1.92,1.92,0,0,0,1.9,1.689A2.047,2.047,0,0,0,51.487,65.058Z"/><line class="cls-8" x1="31.173" x2="31.173" y1="55.448" y2="58.198"/><path class="cls-9" d="M31.169,33.442a6.6,6.6,0,0,0-6.6,6.6v.881a1.347,1.347,0,0,0,.139,2.667,6.6,6.6,0,0,0,13.061-1.348v-2.2A6.6,6.6,0,0,0,31.169,33.442Z"/><path class="cls-10" d="M30.344,40.042a.825.825,0,1,0,.825.825.825.825,0,0,0-.825-.825Z"/><path class="cls-10" d="M34.744,40.042a.825.825,0,1,0,.825.825.825.825,0,0,0-.825-.825Z"/><circle class="cls-11" cx="28.144" cy="43.067" r="0.825"/><path class="cls-8" d="M30.619,45.043a2.975,2.975,0,0,0,3.3,0"/><ellipse class="cls-12" cx="27.563" cy="33.217" rx="4.4" ry="3.85" transform="translate(-15.593 32.396) rotate(-49.226)"/><path class="cls-13" d="M26.769,35.126v0a6.583,6.583,0,0,0-2.2,4.919v.55s4.4,0,4.4-2.75C28.969,35.412,27.984,35.126,26.769,35.126Z"/><path class="cls-14" d="M28.969,37.842c0-2.43-.985-2.716-2.2-2.716,0,0,.55-3.884,5.5-3.884,5.194,0,6.954,4.414,7.134,7.685a.545.545,0,0,1-.552.565H31.13a.545.545,0,0,1-.54-.467A1.214,1.214,0,0,0,28.969,37.842Z"/><path class="cls-15" d="M39.4,38.927c-.18-3.271-1.94-7.685-7.134-7.685-4.95,0-5.5,3.884-5.5,3.884a3.2,3.2,0,0,1,1,.125h0a5.53,5.53,0,0,1,4.5-1.809c4.315,0,6.259,3.047,6.9,5.953A.529.529,0,0,0,39.4,38.927Z"/><path class="cls-8" d="M28.969,37.842c0-2.43-.985-2.716-2.2-2.716,0,0,.55-3.884,5.5-3.884,5.194,0,6.954,4.414,7.134,7.685a.545.545,0,0,1-.552.565H31.13a.545.545,0,0,1-.54-.467A1.214,1.214,0,0,0,28.969,37.842Z"/><path class="cls-14" d="M78.532,38.2a1.918,1.918,0,0,0-.78-3.59,1.9,1.9,0,0,0-2.423-1.993c.006-.041.019-.079.022-.12a1.914,1.914,0,0,0-3.211-1.556,1.909,1.909,0,0,0-3.579-.281A1.914,1.914,0,0,0,65.147,31.7c0,.041,0,.08,0,.121a1.9,1.9,0,0,0-2.7,1.592,1.918,1.918,0,0,0-1.33,3.425,1.918,1.918,0,0,0,.781,3.59c.038,0,.075,0,.114,0A7.667,7.667,0,0,0,77.09,41.6c.038,0,.074.017.113.02A1.918,1.918,0,0,0,78.532,38.2Z"/><path class="cls-15" d="M60.954,36.672a1.782,1.782,0,0,1,1.914-1.626,1.782,1.782,0,0,1,1.916-1.637,1.752,1.752,0,0,1,.594.159c0-.038,0-.075,0-.113a1.777,1.777,0,0,1,3.17-.963,1.773,1.773,0,0,1,3.323.26A1.778,1.778,0,0,1,74.851,34.2c0,.039-.015.074-.02.112a1.752,1.752,0,0,1,.612-.065,1.781,1.781,0,0,1,1.637,1.915,1.782,1.782,0,0,1,1.638,1.905,1.9,1.9,0,0,0,.8-1.393,1.918,1.918,0,0,0-1.763-2.063,1.9,1.9,0,0,0-2.423-1.993c.006-.041.019-.079.022-.12a1.914,1.914,0,0,0-3.211-1.556,1.909,1.909,0,0,0-3.579-.281A1.914,1.914,0,0,0,65.147,31.7c0,.041,0,.08,0,.121a1.9,1.9,0,0,0-2.7,1.592,1.92,1.92,0,0,0-2.063,1.763A1.9,1.9,0,0,0,60.954,36.672Z"/><path class="cls-8" d="M78.532,38.2a1.918,1.918,0,0,0-.78-3.59,1.9,1.9,0,0,0-2.423-1.993c.006-.041.019-.079.022-.12a1.914,1.914,0,0,0-3.211-1.556,1.909,1.909,0,0,0-3.579-.281A1.914,1.914,0,0,0,65.147,31.7c0,.041,0,.08,0,.121a1.9,1.9,0,0,0-2.7,1.592,1.918,1.918,0,0,0-1.33,3.425,1.918,1.918,0,0,0,.781,3.59c.038,0,.075,0,.114,0A7.667,7.667,0,0,0,77.09,41.6c.038,0,.074.017.113.02A1.918,1.918,0,0,0,78.532,38.2Z"/><path class="cls-16" d="M75.721,40.934v-.881q0-.1,0-.2a1.607,1.607,0,0,1-.252.019,1.7,1.7,0,0,1-.3-.028,1.377,1.377,0,1,1-2.556-.884,1.651,1.651,0,0,1-2.226-.772,1.65,1.65,0,0,1-2.821-.534,1.647,1.647,0,0,1-1.95.316,1.651,1.651,0,0,1-2.777.085,6.587,6.587,0,0,0-.31,2v2.2A6.6,6.6,0,0,0,75.583,43.6a1.347,1.347,0,0,0,.138-2.667Z"/><circle class="cls-10" cx="69.946" cy="40.878" r="0.825"/><circle class="cls-10" cx="65.546" cy="40.878" r="0.825"/><circle class="cls-17" cx="72.146" cy="43.078" r="0.825"/><path class="cls-8" d="M69.671,45.053a2.971,2.971,0,0,1-3.3,0"/><ellipse class="cls-3" cx="69.12" cy="92.298" rx="11" ry="1.65"/><path class="cls-18" d="M61.971,71.4v19.25a1.1,1.1,0,0,0,1.1,1.1h2.784a1.1,1.1,0,0,0,1.1-1.065l.4-12.552a1.817,1.817,0,0,1,1.312-1.726,1.77,1.77,0,0,1,2.221,1.653l.4,12.625a1.1,1.1,0,0,0,1.1,1.065H75.17a1.1,1.1,0,0,0,1.1-1.1V71.4Z"/><rect class="cls-19" height="2.75" width="14.3" x="61.971" y="71.398"/><path class="cls-8" d="M61.971,71.4v19.25a1.1,1.1,0,0,0,1.1,1.1h2.784a1.1,1.1,0,0,0,1.1-1.065l.4-12.552a1.817,1.817,0,0,1,1.312-1.726,1.77,1.77,0,0,1,2.221,1.653l.4,12.625a1.1,1.1,0,0,0,1.1,1.065H75.17a1.1,1.1,0,0,0,1.1-1.1V71.4Z"/><path class="cls-20" d="M76.522,91.748a1.1,1.1,0,0,0,.987-1.595,3.3,3.3,0,0,0-2.889-1.705h-.55a3.3,3.3,0,0,0-2.89,1.705,1.1,1.1,0,0,0,.987,1.595Z"/><path class="cls-20" d="M66.072,91.748a1.1,1.1,0,0,0,.987-1.595,3.3,3.3,0,0,0-2.889-1.705h-.55a3.3,3.3,0,0,0-2.89,1.705,1.1,1.1,0,0,0,.987,1.595Z"/><path class="cls-5" d="M69.12,51.048a11.541,11.541,0,0,0-3.595.571L65.556,71.4h7.129l.031-19.778A11.528,11.528,0,0,0,69.12,51.048Z"/><line class="cls-8" x1="69.121" x2="69.121" y1="54.898" y2="71.398"/><path class="cls-16" d="M69.12,51.048a11.544,11.544,0,0,0-3.355.5L69.12,54.9l3.354-3.354A11.537,11.537,0,0,0,69.12,51.048Z"/><path class="cls-18" d="M57.57,62.6c0,1.1.132,2.2-1.1,2.442-.906.226-1.262-.351-1.716-1.078l-4.324,2.354c3.578,6.049,9.814,3.451,11.54.946V77.448c.858,1.727,1.65,0,1.65,0a46.918,46.918,0,0,0,3.3-16.5l-1.4-9.329A11.554,11.554,0,0,0,57.57,62.6Z"/><path class="cls-21" d="M65.84,53.719l-.315-2.1A11.554,11.554,0,0,0,57.57,62.6c0,.368.014.736-.012,1.072A11.6,11.6,0,0,1,65.84,53.719Z"/><path class="cls-18" d="M80.67,62.6a11.556,11.556,0,0,0-7.947-10.976l-1.4,9.326A44,44,0,0,0,72.755,71.7a1.593,1.593,0,0,0,.491.8l2.333,2.042a1.093,1.093,0,0,0,1.443.006,10.786,10.786,0,0,0,3.649-8.1V62.6Z"/><path class="cls-21" d="M80.67,64.8h0V62.6h0a11.556,11.556,0,0,0-7.947-10.976l-.316,2.1A11.555,11.555,0,0,1,80.67,64.8Z"/><path class="cls-8" d="M80.67,62.6a11.556,11.556,0,0,0-7.947-10.976l-1.4,9.326A44,44,0,0,0,72.755,71.7a1.593,1.593,0,0,0,.491.8l2.333,2.042a1.093,1.093,0,0,0,1.443.006,10.786,10.786,0,0,0,3.649-8.1V62.6Z"/><line class="cls-8" x1="61.97" x2="61.97" y1="59.848" y2="67.262"/><path class="cls-22" d="M57.57,62.6c0,1.1.132,2.2-1.1,2.442-.906.226-1.262-.351-1.716-1.078l-4.324,2.354c3.578,6.049,9.814,3.451,11.54.946V77.448c.858,1.727,1.65,0,1.65,0a46.918,46.918,0,0,0,3.3-16.5l-1.4-9.329A11.554,11.554,0,0,0,57.57,62.6Z"/><path class="cls-23" d="M51.36,65.809a2.53,2.53,0,0,0,3.17-2.1,2.646,2.646,0,0,0-2.007-2.822l-.632-.171a1.686,1.686,0,0,0-2.059,1.15l-.476,1.617a1.685,1.685,0,0,0,1.175,2.1Z"/><path class="cls-24" d="M49.832,63.513a1.686,1.686,0,0,1,2.058-1.15l.632.171A2.777,2.777,0,0,1,54.4,64.227a2.522,2.522,0,0,0,.134-.521,2.645,2.645,0,0,0-2.008-2.822l-.632-.171a1.686,1.686,0,0,0-2.058,1.15l-.476,1.617a1.667,1.667,0,0,0,.12,1.241Z"/><path class="cls-8" d="M51.36,65.809a2.53,2.53,0,0,0,3.17-2.1,2.646,2.646,0,0,0-2.007-2.822l-.632-.171a1.686,1.686,0,0,0-2.059,1.15l-.476,1.617a1.685,1.685,0,0,0,1.175,2.1Z"/><path class="cls-25" d="M71.321,60.948a42.368,42.368,0,0,0,.759,7.732l3.091-8.832L73.521,56l2.2-.55-.436-2.617a11.518,11.518,0,0,0-2.562-1.209Z"/><path class="cls-26" d="M75.285,52.831a11.518,11.518,0,0,0-2.562-1.209l-.316,2.1h0A11.527,11.527,0,0,1,75.7,55.3Z"/><path class="cls-22" d="M71.321,60.948a42.368,42.368,0,0,0,.759,7.732l3.091-8.832L73.521,56l2.2-.55-.436-2.617a11.518,11.518,0,0,0-2.562-1.209Z"/><path class="cls-8" d="M76.271,59.848l0,6.736c0,1.943-1.543,5.068-3.022,5.914"/><path class="cls-25" d="M62.955,52.83l-.434,2.618,2.2.55-1.65,3.85,3.079,8.8a41.91,41.91,0,0,0,.771-7.7l-1.4-9.329A11.519,11.519,0,0,0,62.955,52.83Z"/><path class="cls-26" d="M65.84,53.721l-.315-2.1a11.519,11.519,0,0,0-2.57,1.211l-.41,2.471A11.5,11.5,0,0,1,65.84,53.721Z"/><path class="cls-8" d="M62.955,52.83l-.434,2.618,2.2.55-1.65,3.85,3.079,8.8a41.91,41.91,0,0,0,.771-7.7l-1.4-9.329A11.519,11.519,0,0,0,62.955,52.83Z"/><path class="cls-27" d="M69.121,56l.641-.55a3.927,3.927,0,0,1,1.873-1,1.109,1.109,0,0,1,1.336,1.078v.942a1.108,1.108,0,0,1-1.336,1.078,3.91,3.91,0,0,1-1.873-1Z"/><path class="cls-27" d="M69.121,56l-.642-.55a3.925,3.925,0,0,0-1.872-1,1.109,1.109,0,0,0-1.336,1.078v.942a1.108,1.108,0,0,0,1.336,1.078,3.907,3.907,0,0,0,1.872-1Z"/><circle class="cls-27" cx="69.121" cy="55.998" r="1.1"/><g class="cls-28"><line class="cls-8" x1="50.446" x2="50.446" y1="14.961" y2="29.955"/><path class="cls-29" d="M50.443,36c-5.679-2.521-3.515-9.532,0-6.047C53.958,26.47,56.127,33.48,50.443,36Z"/><line class="cls-8" x1="39.446" x2="39.446" y1="14.961" y2="25.043"/><path class="cls-29" d="M39.443,28.5c-3.248-1.442-2.01-5.452,0-3.459C41.454,23.05,42.7,27.059,39.443,28.5Z"/><line class="cls-8" x1="61.446" x2="61.448" y1="14.961" y2="25.043"/><path class="cls-29" d="M61.448,28.5c3.249-1.442,2.011-5.452,0-3.459C59.438,23.05,58.2,27.059,61.448,28.5Z"/></g></g></svg>