<svg viewBox="0 0 64 64" xmlns="http://www.w3.org/2000/svg"><path d="M42.2 20.35c-.06-2.3-2.12-4.64-5.79-6.6-4.84-2.58-12-4.12-15.21-2.11-3.84 2.44-6.39 6-6.31 15.28 0 5.16-2.42 11.15-4.05 15.12l-.75 1.84C8.55 47.57 6.65 52.16 14.66 56a13.78 13.78 0 0 0 5.81 1.58 6.26 6.26 0 0 0 3.09-.76c2.06-1.17 3.27-3.55 3.6-7.07.22-2.46 1.71-14.93 8.57-18.64a12.19 12.19 0 0 0 6.47-10.76Zm-17 29.23c-.18 2-.77 4.49-2.59 5.52-1.59.89-4 .6-7-.89-6.31-3-5.17-5.77-3.6-9.57l.76-1.84c1.69-4.11 4.25-10.33 4.2-15.9-.08-9.33 2.62-11.82 5.38-13.57a5.84 5.84 0 0 1 3-.63 23.67 23.67 0 0 1 10.18 2.81c2.93 1.56 4.7 3.39 4.74 4.91a10.19 10.19 0 0 1-5.42 9c-7.63 4.04-9.34 16.46-9.69 20.16Zm19-31.23a3.17 3.17 0 0 0 1.17.23c1.79 0 3.66-1.49 4.6-3.82a6.82 6.82 0 0 0 .44-3.86 3.59 3.59 0 0 0-2.08-2.74c-2.08-.85-4.61.73-5.77 3.59s-.46 5.76 1.62 6.6Zm.21-5.85c.67-1.64 1.88-2.56 2.77-2.56a1.05 1.05 0 0 1 .4.07 1.73 1.73 0 0 1 .87 1.29 4.91 4.91 0 0 1-.35 2.7c-.77 1.92-2.29 2.85-3.17 2.5s-1.31-2.09-.54-4Zm-6.5.06a2.61 2.61 0 0 0 1 .2 3 3 0 0 0 1.46-.4A3.79 3.79 0 0 0 42 10.45a3.85 3.85 0 0 0 .15-2.52 2.73 2.73 0 0 0-4.07-1.65 3.86 3.86 0 0 0-1.64 1.91 3.79 3.79 0 0 0-.15 2.52 2.78 2.78 0 0 0 1.6 1.85ZM38.28 9a1.94 1.94 0 0 1 .77-1 1 1 0 0 1 .48-.14.69.69 0 0 1 .24 0 .88.88 0 0 1 .46.57 2 2 0 0 1-.86 2.12.85.85 0 0 1-.72.09.83.83 0 0 1-.46-.57A1.9 1.9 0 0 1 38.28 9Zm-6.87 1a2.6 2.6 0 0 0 1 .2 3.52 3.52 0 0 0 3.09-2.38A3.28 3.28 0 0 0 34 3.45a3.29 3.29 0 0 0-4.1 2.11 3.28 3.28 0 0 0 1.51 4.37Zm.38-3.61A1.58 1.58 0 0 1 33 5.25a.7.7 0 0 1 .25 0c.49.2.66 1 .36 1.77s-1 1.21-1.49 1-.63-.96-.33-1.7Zm-7.62 2.77a2.57 2.57 0 0 0 1 .19A3 3 0 0 0 26.62 9a3.84 3.84 0 0 0 1.64-2 3.85 3.85 0 0 0 .16-2.52 2.73 2.73 0 0 0-4.07-1.65 4 4 0 0 0-1.8 4.44 2.86 2.86 0 0 0 1.62 1.89Zm.39-3.62a1.78 1.78 0 0 1 .77-.92 1 1 0 0 1 .47-.14.73.73 0 0 1 .25 0 .88.88 0 0 1 .45.57 1.86 1.86 0 0 1-.09 1.2 1.82 1.82 0 0 1-.77.92.74.74 0 0 1-1.17-.47 1.8 1.8 0 0 1 .09-1.16Zm-7.83 6a2.57 2.57 0 0 0 1 .19 2.92 2.92 0 0 0 1.46-.4 3.77 3.77 0 0 0 1.64-1.91A3.85 3.85 0 0 0 21 6.9a2.84 2.84 0 0 0-1.62-1.85 3.29 3.29 0 0 0-4.1 2.12 3.85 3.85 0 0 0-.15 2.52 2.86 2.86 0 0 0 1.6 1.85Zm.39-3.62a1.55 1.55 0 0 1 1.24-1.06.69.69 0 0 1 .25 0 .88.88 0 0 1 .45.57A1.86 1.86 0 0 1 19 8.67a1.82 1.82 0 0 1-.77.92.74.74 0 0 1-1.23-.48 1.77 1.77 0 0 1 .12-1.19Zm34.29 27.66c-2.95-1.57-7.19-2.45-9.17-1.19-2.33 1.47-3.87 3.59-3.83 9.14 0 2.89-1.37 6.28-2.3 8.53l-.43 1c-.9 2.17-2.13 5.14 2.84 7.53a8.39 8.39 0 0 0 3.52 1 4 4 0 0 0 2-.49c.9-.51 2-1.69 2.28-4.4.13-1.37 1-8.35 4.71-10.38A7.42 7.42 0 0 0 55 39.74c-.08-1.48-1.34-2.96-3.59-4.16Zm-1.34 9c-4.53 2.46-5.55 9.77-5.75 12-.1 1-.39 2.34-1.28 2.84s-2.52 0-3.65-.52c-3.27-1.57-2.74-2.85-1.86-5l.47-1.08c1-2.4 2.48-6 2.45-9.3 0-5.15 1.41-6.5 2.9-7.44 1-.64 4.36-.23 7.16 1.27 1.49.8 2.47 1.76 2.49 2.46a5.43 5.43 0 0 1-2.93 4.75ZM56 31.78l-1.12 2.78a1 1 0 0 1-.93.62 1 1 0 0 1-.38-.07A1 1 0 0 1 53 33.8l1.15-2.8a1 1 0 1 1 1.85.76Zm3.71 1.5L58.21 37a1 1 0 0 1-.93.62 1 1 0 0 1-.93-1.38l1.51-3.7a1 1 0 0 1 1.85.75Zm-9.27-3.76a1 1 0 0 1 1.86.75l-1.13 2.78a1 1 0 0 1-.93.63 1 1 0 0 1-.37-.08 1 1 0 0 1-.56-1.3Zm-2.59-1.59a1 1 0 0 1 .55 1.3L47.27 32a1 1 0 1 1-1.85-.75l1.13-2.78a1 1 0 0 1 1.3-.54Zm-3.72 1.19L43 31.9a1 1 0 1 1-1.85-.75l1.13-2.78a1 1 0 0 1 1.85.75Z" data-name="Layer 6" fill="#ffffff" class="fill-000000"></path></svg>