<?xml version="1.0" encoding="utf-8"?>
<!-- Generator: Adobe Illustrator 25.2.1, SVG Export Plug-In . SVG Version: 6.00 Build 0)  -->
<svg version="1.1" id="Layer_1" xmlns="http://www.w3.org/2000/svg" xmlns:xlink="http://www.w3.org/1999/xlink" x="0px" y="0px"
	 viewBox="0 0 500 137.56" style="enable-background:new 0 0 500 137.56;" xml:space="preserve">
<style type="text/css">
	.st0{fill:#DF4759;}
	.st1{fill:none;}
	.st2{opacity:0.48;fill:url(#SVGID_1_);}
</style>
<g>
	<g>
		<g>
			<g>
				<path class="st0" d="M0.02,72.82c0,0.19-0.02,0.37-0.02,0.56c0,27.84,22.65,50.49,50.49,50.49c27.84,0,50.49-22.65,50.49-50.49
					c0-27.84-22.65-50.49-50.49-50.49c-10.99,0-21.16,3.54-29.46,9.52v38.78c1.12-15.27,13.9-27.36,29.46-27.36
					c16.29,0,29.55,13.25,29.55,29.55c0,16.29-13.25,29.55-29.55,29.55c-16.29,0-29.54-13.25-29.54-29.55
					c0-0.42,0.01-0.84,0.03-1.26V32.45c-0.01,0.01-0.02,0.02-0.03,0.02V0H0v72.82H0.02z"/>
			</g>
		</g>
		<path class="st1" d="M20.98,72.82v-0.7c-0.02,0.42-0.03,0.84-0.03,1.26c0,16.29,13.25,29.55,29.54,29.55
			c16.29,0,29.55-13.25,29.55-29.55S66.78,43.83,50.49,43.83c-15.55,0-28.33,12.09-29.46,27.36v1.63H20.98z"/>
		<linearGradient id="SVGID_1_" gradientUnits="userSpaceOnUse" x1="1.2616" y1="47.0384" x2="72.7782" y2="47.0384">
			<stop  offset="0" style="stop-color:#000000"/>
			<stop  offset="1" style="stop-color:#FFFFFF;stop-opacity:0"/>
		</linearGradient>
		<path class="st2" d="M50.49,22.89c-10.99,0-21.16,3.54-29.46,9.52v38.78c1.12-15.27,13.9-27.36,29.46-27.36
			c12.84,0,23.78,8.23,27.85,19.69l14.21-18.04C83.5,31.88,68.03,22.89,50.49,22.89z"/>
	</g>
	<g>
		<path class="st0" d="M118,42.58c-1.88-1.85-2.82-4.13-2.82-6.85c0-2.79,0.94-5.1,2.82-6.95c1.88-1.85,4.31-2.77,7.28-2.77
			c2.9,0,5.3,0.92,7.18,2.77c1.88,1.85,2.82,4.17,2.82,6.95c0,2.72-0.94,5-2.82,6.85c-1.88,1.85-4.27,2.77-7.18,2.77
			C122.31,45.35,119.88,44.43,118,42.58z M133.69,51.42v58.33h-16.93V51.42H133.69z"/>
		<path class="st0" d="M147.21,42.58c-1.88-1.85-2.82-4.13-2.82-6.85c0-2.79,0.94-5.1,2.82-6.95c1.88-1.85,4.31-2.77,7.28-2.77
			c2.9,0,5.3,0.92,7.18,2.77c1.88,1.85,2.82,4.17,2.82,6.95c0,2.72-0.94,5-2.82,6.85c-1.88,1.85-4.27,2.77-7.18,2.77
			C151.51,45.35,149.09,44.43,147.21,42.58z M162.9,51.42v58.33h-16.93V51.42H162.9z"/>
		<path class="st0" d="M224.38,57.43c3.83,4.43,5.74,10.51,5.74,18.24v34.08h-16.83V78.07c0-3.9-0.96-6.93-2.87-9.09
			c-1.92-2.16-4.49-3.24-7.72-3.24c-3.23,0-5.81,1.08-7.72,3.24c-1.92,2.16-2.87,5.19-2.87,9.09v31.68h-16.93V32.39h16.93v26.87
			c1.72-2.58,4.06-4.63,7.03-6.17c2.97-1.53,6.3-2.3,10-2.3C215.47,50.79,220.55,53,224.38,57.43z"/>
		<path class="st0" d="M241.76,64.69c2.14-4.53,5.06-8.01,8.76-10.45c3.7-2.44,7.82-3.66,12.38-3.66c3.89,0,7.31,0.84,10.25,2.51
			c2.94,1.67,5.2,3.87,6.78,6.59v-8.26h16.93v58.33h-16.93v-8.26c-1.65,2.72-3.94,4.91-6.88,6.59s-6.35,2.51-10.25,2.51
			c-4.49,0-8.58-1.24-12.28-3.71c-3.7-2.47-6.62-5.99-8.76-10.56c-2.15-4.56-3.22-9.84-3.22-15.84
			C238.54,74.49,239.61,69.22,241.76,64.69z M276.41,70.02c-2.34-2.58-5.2-3.87-8.56-3.87c-3.37,0-6.22,1.27-8.56,3.82
			c-2.34,2.54-3.51,6.05-3.51,10.51c0,4.46,1.17,8,3.51,10.61c2.34,2.61,5.2,3.92,8.56,3.92c3.37,0,6.22-1.29,8.56-3.87
			c2.34-2.58,3.51-6.1,3.51-10.56C279.92,76.12,278.75,72.6,276.41,70.02z"/>
		<path class="st0" d="M332.89,53.09c2.9-1.67,6.3-2.51,10.2-2.51c4.55,0,8.68,1.22,12.38,3.66c3.7,2.44,6.62,5.92,8.76,10.45
			c2.14,4.53,3.22,9.79,3.22,15.79c0,5.99-1.07,11.27-3.22,15.84c-2.15,4.57-5.07,8.09-8.76,10.56c-3.7,2.47-7.82,3.71-12.38,3.71
			c-3.83,0-7.21-0.84-10.15-2.51c-2.94-1.67-5.23-3.83-6.88-6.48v35.96h-16.93V51.42h16.93v8.26
			C327.7,56.96,329.98,54.76,332.89,53.09z M346.7,69.97c-2.34-2.54-5.23-3.82-8.66-3.82c-3.37,0-6.22,1.29-8.56,3.87
			c-2.34,2.58-3.51,6.1-3.51,10.56c0,4.46,1.17,7.98,3.51,10.56c2.34,2.58,5.2,3.87,8.56,3.87s6.24-1.31,8.61-3.92
			s3.56-6.15,3.56-10.61C350.21,76.02,349.04,72.52,346.7,69.97z"/>
		<path class="st0" d="M400.11,53.09c2.9-1.67,6.3-2.51,10.2-2.51c4.55,0,8.68,1.22,12.38,3.66c3.7,2.44,6.62,5.92,8.76,10.45
			c2.14,4.53,3.22,9.79,3.22,15.79c0,5.99-1.07,11.27-3.22,15.84c-2.15,4.57-5.07,8.09-8.76,10.56c-3.7,2.47-7.82,3.71-12.38,3.71
			c-3.83,0-7.21-0.84-10.15-2.51c-2.94-1.67-5.23-3.83-6.88-6.48v35.96h-16.93V51.42h16.93v8.26
			C394.93,56.96,397.2,54.76,400.11,53.09z M413.92,69.97c-2.34-2.54-5.23-3.82-8.66-3.82c-3.37,0-6.22,1.29-8.56,3.87
			c-2.34,2.58-3.51,6.1-3.51,10.56c0,4.46,1.17,7.98,3.51,10.56c2.34,2.58,5.2,3.87,8.56,3.87s6.24-1.31,8.61-3.92
			s3.56-6.15,3.56-10.61C417.43,76.02,416.26,72.52,413.92,69.97z"/>
		<path class="st0" d="M500,51.42l-34.65,86.04h-18.22l12.67-29.69l-22.47-56.35h18.91l12.77,36.48l12.67-36.48H500z"/>
	</g>
</g>
</svg>
