<?xml version="1.0" encoding="utf-8"?>
<!-- Generator: Adobe Illustrator 25.2.1, SVG Export Plug-In . SVG Version: 6.00 Build 0)  -->
<svg version="1.1" id="Layer_1" xmlns="http://www.w3.org/2000/svg" xmlns:xlink="http://www.w3.org/1999/xlink" x="0px" y="0px"
	 viewBox="0 0 407.62 500" style="enable-background:new 0 0 407.62 500;" xml:space="preserve">
<style type="text/css">
	.st0{fill:#DF4759;}
	.st1{fill:none;}
	.st2{opacity:0.48;fill:url(#SVGID_1_);}
</style>
<g>
	<g>
		<g>
			<path class="st0" d="M0.07,293.93c-0.01,0.76-0.07,1.5-0.07,2.26C0,408.57,91.43,500,203.81,500
				c112.38,0,203.81-91.43,203.81-203.81c0-112.38-91.43-203.81-203.81-203.81c-44.35,0-85.41,14.28-118.9,38.43v156.56
				c4.53-61.65,56.11-110.44,118.9-110.44c65.76,0,119.26,53.5,119.26,119.26c0,65.76-53.5,119.26-119.26,119.26
				c-65.76,0-119.26-53.5-119.26-119.26c0-1.71,0.06-3.41,0.13-5.1V130.97c-0.04,0.03-0.09,0.07-0.13,0.1V0H0v293.93H0.07z"/>
		</g>
	</g>
	<path class="st1" d="M84.68,293.93v-2.84c-0.07,1.69-0.13,3.39-0.13,5.1c0,65.76,53.5,119.26,119.26,119.26
		c65.76,0,119.26-53.5,119.26-119.26s-53.5-119.26-119.26-119.26c-62.79,0-114.36,48.79-118.9,110.44v6.57H84.68z"/>
	<linearGradient id="SVGID_1_" gradientUnits="userSpaceOnUse" x1="5.0927" y1="189.8724" x2="293.7718" y2="189.8724">
		<stop  offset="0" style="stop-color:#000000"/>
		<stop  offset="1" style="stop-color:#FFFFFF;stop-opacity:0"/>
	</linearGradient>
	<path class="st2" d="M203.81,92.38c-44.35,0-85.41,14.28-118.9,38.43v156.56c4.53-61.65,56.11-110.44,118.9-110.44
		c51.82,0,96,33.23,112.42,79.49l57.37-72.81C337.04,128.67,274.59,92.38,203.81,92.38z"/>
</g>
</svg>
