<svg viewBox="0 0 48 48" xml:space="preserve" xmlns="http://www.w3.org/2000/svg" enable-background="new 0 0 48 48"><path d="M33 15.2c-.7-3.1-2.9-5.4-5.6-6.5.9-.9 1.4-2.1 1.4-3.4 0-2.6-2.1-4.8-4.8-4.8s-4.8 2.1-4.8 4.8c0 1.3.6 2.5 1.4 3.4-2.8 1.1-4.9 3.5-5.6 6.5l-.3 1.2h18.5l-.2-1.2zM21.2 5.3c0-1.5 1.2-2.8 2.8-2.8s2.8 1.2 2.8 2.8-1.3 2.8-2.8 2.8-2.8-1.3-2.8-2.8zm-3.8 9.1c1.1-2.6 3.7-4.4 6.6-4.4s5.5 1.7 6.6 4.4H17.4zM47.5 42c-.7-3.1-2.9-5.4-5.6-6.5.9-.9 1.4-2.1 1.4-3.4 0-2.6-2.1-4.8-4.8-4.8s-4.8 2.1-4.8 4.8c0 1.3.6 2.5 1.4 3.4-2.8 1.1-4.9 3.5-5.6 6.5l-.3 1.2h18.5l-.2-1.2zM35.7 32c0-1.5 1.2-2.8 2.8-2.8s2.8 1.2 2.8 2.8-1.2 2.8-2.8 2.8-2.8-1.2-2.8-2.8zm-3.9 9.2c1.1-2.6 3.7-4.4 6.6-4.4s5.5 1.7 6.6 4.4H31.8zM18.5 42c-.7-3.1-2.9-5.4-5.6-6.5.9-.9 1.4-2.1 1.4-3.4 0-2.6-2.1-4.8-4.8-4.8S4.7 29.4 4.7 32c0 1.3.6 2.5 1.4 3.4-2.8 1.1-4.9 3.5-5.6 6.5l-.3 1.2h18.5l-.2-1.1zM6.7 32c0-1.5 1.2-2.8 2.8-2.8s2.8 1.2 2.8 2.8-1.2 2.8-2.8 2.8-2.8-1.2-2.8-2.8zm-3.8 9.2c1.1-2.6 3.7-4.4 6.6-4.4s5.5 1.7 6.6 4.4H2.9zM17.5 7.9 16.9 6C8.4 9.1 2.7 17.1 2.7 26.2c0 .8 0 1.7.1 2.5l2-.2c-.1-.7-.1-1.5-.1-2.2 0-8.3 5.1-15.6 12.8-18.4zM32 46l-.7-1.9c-4.8 1.9-10.2 1.9-14.9-.2l-.8 1.8c2.7 1.1 5.5 1.7 8.4 1.7 2.8.1 5.5-.4 8-1.4zM45.2 28.3c.1-.7.1-1.5.1-2.2 0-9.2-5.8-17.3-14.6-20.2l-.6 1.9c7.9 2.6 13.2 10 13.2 18.3 0 .7 0 1.3-.1 2l2 .2z" fill="#ffffff" class="fill-000000"></path></svg>