<svg viewBox="0 0 100 100" xml:space="preserve" xmlns="http://www.w3.org/2000/svg"><path d="M68.133 70.655c7.377 0 13.379-6.002 13.379-13.379S75.51 43.897 68.133 43.897s-13.379 6.002-13.379 13.379 6.002 13.379 13.379 13.379z" fill="#df4758" class="fill-847e64"></path><path d="M88.094 50.622h-6.118a15.252 15.252 0 0 1 1.535 6.654c0 8.48-6.899 15.379-15.379 15.379s-15.379-6.899-15.379-15.379c0-2.386.562-4.637 1.535-6.654H48.17a6.027 6.027 0 0 0-6.027 6.027v20.588a6.027 6.027 0 0 0 6.027 6.027h32.133c6.949-6.334 11.902-14.816 13.817-24.396v-2.219a6.024 6.024 0 0 0-6.026-6.027zM85.231 34.905a1.46 1.46 0 0 0-1.461 1.461v4.48a1.46 1.46 0 0 0 1.461 1.461h4.48a1.46 1.46 0 0 0 1.461-1.461v-4.48a1.46 1.46 0 0 0-1.461-1.461h-4.48z" fill="#df4758" class="fill-847e64"></path><path d="M46.172 85.264a6.027 6.027 0 0 1-6.027-6.027V35.314a6.027 6.027 0 0 1 6.027-6.027h43.775C82.45 14.861 67.381 5 50 5 25.147 5 5 25.147 5 50s20.147 45 45 45c10.559 0 20.261-3.646 27.937-9.736H46.172z" fill="#df4758" class="fill-847e64"></path></svg>