<svg viewBox="0 0 512 512" xml:space="preserve" xmlns="http://www.w3.org/2000/svg"><g fill="#ffffff" class="fill-e2247a"><path d="M430.236 356.207c-4.966-2.525-11.04-.549-13.566 4.417a78.321 78.321 0 0 1-2.467 4.483c-2.845 4.79-1.268 10.98 3.522 13.825a10.086 10.086 0 0 0 13.826-3.522 99.13 99.13 0 0 0 3.102-5.637c2.526-4.966.548-11.04-4.417-13.566z"></path><path d="M456.081 201.812c20.854-10.344 37.874-22.866 45.203-40.309 8.206-19.606-1.91-42.603-22.547-51.262-5.82-2.445-11.242-3.633-16.576-3.633-6.192 0-11.726 1.633-16.701 4.067-3.226-9.745-9.617-18.438-23.008-24.051-5.262-2.208-10.783-3.327-16.408-3.327-15.946 0-30.061 9.087-35.958 23.147-6.416 15.287-4.919 33.23.409 52.315a167.123 167.123 0 0 0-28.609-2.469c-16.176 0-32.12 2.318-47.491 6.897-26.791-30.265-63.361-49.556-103.141-54.621 10.425-17.801 16.74-35.439 14.166-52.392-2.866-18.834-19.479-32.503-39.503-32.503-2.145 0-4.314.165-6.461.49-14.359 2.196-22.676 9.076-28.182 17.741-6.314-5.317-14.182-9.154-24.575-9.154-2.401 0-4.949.204-7.561.603-10.597 1.609-20.004 7.003-26.491 15.191-6.654 8.399-9.456 18.707-7.887 29.032 2.683 17.558 14.688 32.984 30.775 47.302-24.484 12.301-45.525 30.431-61.453 53.148C14.46 206.01 4.088 238.935 4.088 273.237c0 91.536 74.48 166.005 166.029 166.005 15.438 0 30.629-2.102 45.259-6.249 10.494 11.808 22.835 21.586 36.807 29.045 26.735 17.2 57.743 26.29 89.703 26.29 91.549 0 166.029-74.47 166.029-166.006-.001-46.128-18.718-89.216-51.834-120.51zM388.69 114.25c2.746-6.547 9.557-10.777 17.353-10.777 2.931 0 5.825.591 8.605 1.757 9.327 3.91 12.407 9.098 13.731 23.131a10.086 10.086 0 0 0 16.393 6.892c7.428-6.016 12.466-8.47 17.388-8.47 2.599 0 5.465.673 8.766 2.061 10.391 4.359 15.66 15.516 11.75 24.855-8.571 20.4-41.147 33.811-74.697 46.303-14.586-32.68-27.86-65.33-19.289-85.752zM84.704 74.536c-.717-4.72.617-9.502 3.756-13.464 3.305-4.172 8.172-6.932 13.716-7.773 1.617-.248 3.139-.373 4.521-.373 6.188 0 11.089 2.064 19.249 12.953a10.087 10.087 0 0 0 17.58-2.676c4.714-13.283 8.971-17.566 18.967-19.095a22.82 22.82 0 0 1 3.422-.26c9.977 0 18.202 6.461 19.556 15.359 2.35 15.477-7.352 34.199-21.046 53.774-.361.514-.718 1.028-1.085 1.544-.151.214-.306.429-.458.643-5.277 7.392-11.125 14.975-17.027 22.488-6.061-4.169-12.068-8.366-17.823-12.593-.402-.296-.81-.592-1.209-.888l-.454-.339a332.112 332.112 0 0 1-5.666-4.302c-.028-.022-.06-.038-.089-.06-18.809-14.573-33.553-29.517-35.91-44.938zm85.412 344.531c-80.423 0-145.853-65.418-145.853-145.829 0-58.242 35.416-111.489 88.694-134.233 9.373 7.034 19.474 13.932 29.289 20.635a10.273 10.273 0 0 0 .77.473c.072.04.146.077.219.115a9.791 9.791 0 0 0 .817.387c.248.104.499.197.751.28l.06.021c1.001.321 2.036.482 3.066.482.176 0 .352-.02.527-.029l.153-.008c.281-.019.56-.049.837-.091l.06-.01c1.2-.189 2.362-.593 3.432-1.204l.048-.026a10.377 10.377 0 0 0 .886-.58c.186-.136.369-.277.546-.426.108-.091.212-.187.316-.282.145-.132.29-.262.427-.404.192-.196.373-.405.551-.619.043-.052.092-.097.134-.15l.028-.035.015-.019c6.788-8.579 13.63-17.23 19.987-25.897.563-.767 1.117-1.531 1.672-2.297.139-.192.281-.385.419-.577.264-.365.534-.73.796-1.095 41.252 2.414 79.425 22.156 105.431 54.742.212.262.417.524.624.786.245.312.49.623.741.935.049.062.098.129.147.192.641.832 1.271 1.671 1.892 2.514.158.222.318.438.479.653.528.725 1.047 1.455 1.562 2.188.253.358.508.714.74 1.072l.129.195.692 1.013c.149.221.301.44.448.662.257.39.514.794.771 1.202.047.075.096.15.145.224.263.393.526.784.766 1.177.048.078.097.156.147.233.166.255.332.517.498.778l.324.509c.176.285.346.574.52.86l.131.22.249.412c.044.075.089.149.135.224.134.216.261.438.39.658.196.337.393.674.596 1.005.087.15.17.301.254.452.169.303.339.605.527.925.295.501.568 1.002.877 1.568l.056.1c.087.155.168.31.25.465.144.271.289.542.439.813.313.577.626 1.156.939 1.755l.092.186c.168.343.345.688.527 1.029l.195.387.717 1.434c.246.571.487 1.058.681 1.446.292.605.585 1.21.854 1.838.077.179.159.355.246.53.09.181.183.382.277.587.142.316.281.635.42.952l.086.198c.185.43.371.86.563 1.289l.122.289c.069.198.144.393.225.586.344.818.687 1.637 1.031 2.481l.332.843c.299.762.601 1.524.879 2.308.073.212.156.435.253.686.091.249.175.5.264.75.234.651.47 1.307.685 1.97l.061.182.247.714c.3.875.575 1.752.851 2.628l.034.108 1.172 3.908c3.626 12.801 5.465 26.168 5.465 39.73 0 37.077-14.251 72.82-39.443 99.741-.605-.995-1.204-1.977-1.799-2.952-.866-1.42-1.697-2.785-2.509-4.128-.334-.555-.671-1.111-.997-1.656l-.366-.615a272.693 272.693 0 0 1-1.539-2.615c-6.044-10.423-10.118-19.488-11.127-32.095 10.55-16.662 16.109-35.835 16.109-55.68a100.25 100.25 0 0 0-.093-4.319 75.09 75.09 0 0 0-.108-2.15 9.373 9.373 0 0 0-.026-.502l-.146-1.859a10.663 10.663 0 0 0-.022-.399 60.298 60.298 0 0 0-.236-2.335 11.926 11.926 0 0 0-.02-.197c-.067-.612-.156-1.231-.236-1.849-.024-.183-.045-.366-.07-.548-.202-1.49-.433-2.988-.706-4.494-.019-.105-.042-.208-.062-.314a107.102 107.102 0 0 0-1.037-4.948c-.087-.372-.164-.743-.254-1.115a8.502 8.502 0 0 0-.104-.385 60.096 60.096 0 0 0-.292-1.142l-.153-.586c-.045-.18-.097-.359-.152-.537-.072-.265-.146-.528-.22-.792l-.024-.085c-.073-.26-.147-.519-.215-.779a9.755 9.755 0 0 0-.245-.802 69.361 69.361 0 0 0-.548-1.787 8.871 8.871 0 0 0-.136-.398l-.029-.087-.188-.564-.479-1.445a9.21 9.21 0 0 0-.144-.404c-.207-.542-.414-1.112-.62-1.681-.03-.081-.064-.16-.096-.241-.177-.471-.366-.936-.55-1.404a73.447 73.447 0 0 0-1.059-2.595 106.258 106.258 0 0 0-1.098-2.479l-.498-1.086c-.072-.161-.158-.325-.234-.486-.328-.689-.662-1.376-1.005-2.059a50.282 50.282 0 0 0-.695-1.368l-.233-.465a5.42 5.42 0 0 0-.096-.186c-.141-.267-.291-.524-.435-.783-.229-.423-.465-.842-.7-1.262-.098-.181-.194-.364-.303-.539-.112-.179-.212-.37-.313-.554l-.275-.494c-.131-.229-.274-.46-.448-.73l-.02-.032-.166-.281-.049-.079c-.347-.577-.704-1.148-1.063-1.72a26.485 26.485 0 0 0-.932-1.466l-.104-.163a25.91 25.91 0 0 0-.558-.848c-.015-.023-.033-.047-.048-.071-.246-.367-.496-.731-.747-1.096-.071-.104-.143-.21-.215-.313l-.221-.321a25.439 25.439 0 0 0-.506-.711l-.071-.097c-.088-.135-.18-.268-.274-.398l-.675-.929-.098-.132-.113-.149c-.174-.235-.354-.467-.53-.701l-.139-.184a5.923 5.923 0 0 0-.115-.15l-.552-.716a13.77 13.77 0 0 0-.213-.266 24.965 24.965 0 0 1-.57-.725 22.93 22.93 0 0 0-.406-.52l-.056-.069a10.348 10.348 0 0 0-.371-.465l-.082-.097c-.234-.286-.479-.564-.717-.848-.219-.277-.44-.543-.688-.829-.268-.32-.608-.725-1.024-1.167-.092-.108-.189-.22-.295-.34a10.241 10.241 0 0 0-.385-.449l-.166-.182-.099-.109-.56-.614a25.365 25.365 0 0 0-.453-.493l-.086-.092a9.484 9.484 0 0 0-.455-.485c-.208-.209-.419-.415-.627-.643a12.7 12.7 0 0 0-.3-.313l-.182-.19a28.316 28.316 0 0 0-.537-.556l-.077-.076-.018-.019a.259.259 0 0 0-.017-.015c-19.713-19.883-45.976-30.832-73.972-30.832-57.446 0-104.181 46.737-104.181 104.184s46.735 104.184 104.181 104.184c4.671 0 9.345-.317 13.975-.945.192.615.404 1.215.602 1.826.187.577.376 1.154.572 1.736 4.33 12.897 9.95 24.781 16.84 35.515-10.422 2.334-21.133 3.512-31.988 3.512zm5.767-96.743c0 3.486.094 6.718.286 9.872.038 1.841.36 11.267 2.951 24.559a83.893 83.893 0 0 1-9.005.492c-46.32 0-84.004-37.686-84.004-84.007s37.684-84.007 84.004-84.007c19.138 0 37.26 6.368 52.055 18.102-29.533 30.778-46.287 72.081-46.287 114.989zm166.001 145.829c-28.209 0-55.565-8.053-79.111-23.29-.246-.159-.5-.308-.759-.445-13.788-7.302-25.546-17.027-35.237-29.044-.064-.085-.117-.177-.184-.26a123.472 123.472 0 0 1-10.453-15.295 132.214 132.214 0 0 1-4.167-7.761 148.605 148.605 0 0 1-6.796-16.153c-8.477-23.962-8.835-44.021-8.837-44.204a9.492 9.492 0 0 0-.02-.533 140.183 140.183 0 0 1-.261-8.844c0-37.537 14.584-73.682 40.328-100.686.074.092.148.192.222.282l1.623 2.161c.13.193.264.376.398.561.277.39.548.782.818 1.177l.139.203c.102.146.206.29.308.45.096.15.195.298.299.444l.1.156c.03.046.062.094.091.141.249.379.492.761.735 1.144.037.062.072.124.11.185l.436.697c.047.075.094.148.143.221.104.156.196.322.29.482l.188.317.002.003c.222.373.446.744.663 1.12.139.247.275.495.421.738l.043.08c.096.191.198.379.307.564l.034.061c.234.427.47.852.697 1.282l.024.048c.032.065.065.129.1.194.155.292.308.585.451.878l.151.304.023.048.121.242c.056.113.113.225.168.338.173.346.349.69.502 1.036l.046.103 1.021 2.239c.176.388.341.787.509 1.183.187.445.37.893.549 1.342.171.435.345.869.504 1.308.029.08.063.157.094.236a83.115 83.115 0 0 1 1.624 4.72c.056.184.117.368.167.552a82.547 82.547 0 0 1 .719 2.511l.071.269c.22.833.425 1.669.619 2.509.056.24.108.48.162.721.161.725.313 1.452.454 2.182a83.753 83.753 0 0 1 1.279 9.373l.014.177c-10.515 16.64-16.072 35.818-16.101 55.674-.004 1.342.021 2.646.064 3.927 0 .122-.005.244 0 .366.005.13.018.252.023.382.048 1.174.121 2.316.208 3.444.016.206.029.416.047.62 1.703 20.454 9.633 33.476 19.369 49.452 2.619 4.298 5.328 8.743 8.144 13.702a10.11 10.11 0 0 0 5.542 4.594c19.33 17.895 44.285 27.699 70.757 27.699 23.4 0 45.499-7.569 63.909-21.889 4.398-3.421 5.19-9.759 1.769-14.157s-9.759-5.189-14.157-1.769c-14.835 11.539-32.65 17.638-51.521 17.638-19.132 0-37.269-6.372-52.054-18.082 29.533-30.803 46.288-72.104 46.288-114.983 0-11.65-1.2-23.182-3.563-34.4a84.506 84.506 0 0 1 9.33-.521c39.826 0 74.447 28.261 82.325 67.212a84.332 84.332 0 0 1 1.68 16.794c0 5.572 4.517 10.088 10.088 10.088s10.088-4.517 10.088-10.088c0-7.018-.702-14.022-2.083-20.807-9.771-48.312-52.709-83.376-102.098-83.376-4.951 0-9.885.35-14.754 1.043-.147-.428-.311-.848-.461-1.275-.146-.416-.285-.84-.433-1.25a22.224 22.224 0 0 0-.264-.711l-.015-.042c-.087-.249-.186-.485-.276-.73-.246-.659-.493-1.317-.747-1.972-.043-.11-.083-.224-.126-.334l-.354-.899-.042-.105c-.114-.281-.229-.55-.343-.827-.356-.883-.71-1.767-1.082-2.644l-.021-.053-.07-.167c-.039-.092-.078-.185-.12-.276a72.78 72.78 0 0 1-.488-1.118 92.9 92.9 0 0 0-.572-1.31l-.066-.145-.12-.254a166.237 166.237 0 0 0-1.944-4.146c-.063-.143-.123-.289-.192-.429l-.291-.582c-.251-.51-.507-1.019-.764-1.526l-.046-.093c-.021-.042-.042-.078-.063-.117-.099-.194-.202-.387-.302-.581l-.06-.12-.192-.389-.074-.144c-.165-.316-.33-.617-.495-.925a164.094 164.094 0 0 0-4.266-7.609c-.1-.169-.198-.339-.3-.506a53.098 53.098 0 0 0-.372-.615c-.107-.176-.218-.353-.321-.537a10.09 10.09 0 0 0-.354-.589l-.323-.506a159.76 159.76 0 0 0-2.27-3.523c-.19-.297-.381-.601-.571-.886l-.064-.094-.098-.144c-.12-.179-.232-.363-.354-.542 11.111-2.658 22.519-4 34.067-4 12.276 0 24.41 1.52 36.141 4.515 4.589 11.825 9.994 23.851 15.348 35.755l.063.139a10.089 10.089 0 0 0 9.202 5.952c1.162 0 2.342-.202 3.491-.626 9.993-3.688 20.068-7.407 29.771-11.371 33.012 27.828 51.837 68.132 51.837 111.492.007 80.41-65.422 145.829-145.846 145.829z"></path></g></svg>